<?xml version="1.0" encoding="UTF-8"?>
<svg version="1.1" xmlns="http://www.w3.org/2000/svg" width="500" height="500">
<path d="M0 0 C165 0 330 0 500 0 C500 165 500 330 500 500 C335 500 170 500 0 500 C0 335 0 170 0 0 Z " fill="#FEFEFE" transform="translate(0,0)"/>
<path d="M0 0 C15.91815021 10.82624566 28.33711642 26.05958038 32.24487305 45.2800293 C35.33387539 66.21933012 31.80882082 85.21518863 19.65234375 102.578125 C8.95612075 116.53727523 -7.77304734 127.28570966 -25.38671875 129.77734375 C-45.96662618 131.62901591 -64.15517215 128.70092811 -80.51171875 115.26953125 C-94.99801788 102.83211807 -104.4240964 86.96742897 -106.38671875 67.77734375 C-107.89355475 47.32742658 -102.5483005 29.07922881 -89.20703125 13.1796875 C-66.26329963 -11.15571309 -29.11154361 -17.36090537 0 0 Z " fill="#FAFCFC" transform="translate(286.38671875,154.22265625)"/>
<path d="M0 0 C0.79148438 0.48726562 1.58296875 0.97453125 2.3984375 1.4765625 C4.59201648 2.64864923 4.59201648 2.64864923 6.71875 1.625 C7.3478125 1.2125 7.976875 0.8 8.625 0.375 C14.34441782 -2.59909727 19.18274208 -3.62350197 25.625 -2.625 C32.92181752 -0.30377381 37.97790534 3.60566932 41.625 10.375 C42.69735074 13.59205221 42.88619883 16.74598055 43 20.125 C43.04898438 21.10984375 43.09796875 22.0946875 43.1484375 23.109375 C41.94444861 30.62082808 36.19769576 36.27680741 31.00390625 41.5 C30.38152573 42.13236572 29.7591452 42.76473145 29.11790466 43.41625977 C27.81161715 44.73761948 26.50134379 46.05504986 25.18725586 47.36865234 C23.18028549 49.38223829 21.19858399 51.41869159 19.21679688 53.45703125 C17.93897135 54.74365046 16.65972307 56.02885856 15.37890625 57.3125 C14.79121964 57.92174316 14.20353302 58.53098633 13.59803772 59.15869141 C10.78339859 61.92726965 9.37641613 63.25808158 5.38647461 63.87890625 C-0.02141833 62.8920889 -3.0990791 58.75103198 -6.4921875 54.74609375 C-9.15799038 51.67672135 -11.93005749 48.79553632 -14.85546875 45.97265625 C-15.62697266 45.22693359 -16.39847656 44.48121094 -17.19335938 43.71289062 C-18.77695038 42.19196439 -20.36817518 40.67894798 -21.96679688 39.17382812 C-27.7683254 33.5281761 -32.40047413 27.69103585 -32.8125 19.3125 C-31.98264931 11.84384375 -29.85479802 6.97304599 -24.25390625 1.8515625 C-16.69951673 -4.08515109 -8.25421536 -4.44925305 0 0 Z " fill="#FBFDFD" transform="translate(244.375,168.625)"/>
<path d="M0 0 C15.91815021 10.82624566 28.33711642 26.05958038 32.24487305 45.2800293 C35.33387539 66.21933012 31.80882082 85.21518863 19.65234375 102.578125 C8.95612075 116.53727523 -7.77304734 127.28570966 -25.38671875 129.77734375 C-45.96662618 131.62901591 -64.15517215 128.70092811 -80.51171875 115.26953125 C-94.99801788 102.83211807 -104.4240964 86.96742897 -106.38671875 67.77734375 C-107.89355475 47.32742658 -102.5483005 29.07922881 -89.20703125 13.1796875 C-66.26329963 -11.15571309 -29.11154361 -17.36090537 0 0 Z M-57.38671875 -2.22265625 C-58.21300781 -1.96742188 -59.03929687 -1.7121875 -59.890625 -1.44921875 C-76.39441668 4.3257838 -88.11738113 16.83395897 -96.38671875 31.77734375 C-104.19066839 48.7073239 -104.5818532 66.29757494 -98.38671875 83.77734375 C-91.9348537 100.34531243 -79.99953644 112.75813016 -64.01171875 120.58984375 C-48.35254055 127.14587875 -29.27568642 128.56393273 -13.2890625 122.21484375 C5.47150232 114.21864057 17.55576271 101.34331823 25.546875 82.5859375 C30.7480441 69.47102785 30.73389358 51.7309618 25.8046875 38.5234375 C25.41152344 37.61722656 25.01835937 36.71101563 24.61328125 35.77734375 C24.06994141 34.46443359 24.06994141 34.46443359 23.515625 33.125 C20.53002329 26.55667623 16.34410197 21.18530322 11.61328125 15.77734375 C11.08089844 15.14957031 10.54851562 14.52179688 10 13.875 C-0.69723348 2.16909438 -17.39994819 -4.55814445 -33.05078125 -5.42578125 C-41.64206889 -5.52745329 -49.14671748 -4.94173845 -57.38671875 -2.22265625 Z " fill="#119783" transform="translate(286.38671875,154.22265625)"/>
<path d="M0 0 C4.55555556 0.55555556 4.55555556 0.55555556 6 2 C6.68952891 13.85459325 2.9783259 26.06181143 -4.61621094 35.22802734 C-7.0014869 37.90629447 -9.45395147 40.47300872 -12 43 C-15.62053326 46.1839129 -15.62053326 46.1839129 -15 59 C-24.9 59 -34.8 59 -45 59 C-45 55.04 -45 51.08 -45 47 C-44.01 47 -43.02 47 -42 47 C-41.96261719 46.05898437 -41.92523438 45.11796875 -41.88671875 44.1484375 C-41.78810547 42.28058594 -41.78810547 42.28058594 -41.6875 40.375 C-41.62949219 39.14523438 -41.57148438 37.91546875 -41.51171875 36.6484375 C-40.8792463 32.13905379 -40.04543853 28.70936352 -36.43237305 25.68994141 C-34.50359844 24.38428573 -32.54509959 23.23940838 -30.5 22.125 C-29.79037109 21.72933838 -29.08074219 21.33367676 -28.34960938 20.92602539 C-22.53995017 17.88146482 -17.55429562 16.87521622 -11 18 C-10.37351562 16.86820313 -9.74703125 15.73640625 -9.1015625 14.5703125 C-8.27621778 13.08844357 -7.45068728 11.60667809 -6.625 10.125 C-6.00625 9.00544922 -6.00625 9.00544922 -5.375 7.86328125 C-4.97539062 7.14785156 -4.57578125 6.43242187 -4.1640625 5.6953125 C-3.79748535 5.03547363 -3.4309082 4.37563477 -3.05322266 3.69580078 C-2 2 -2 2 0 0 Z " fill="#F8FCFB" transform="translate(297,206)"/>
<path d="M0 0 C2.45776367 0.12280273 2.45776367 0.12280273 5 1 C6.4855957 2.76586914 6.4855957 2.76586914 7.67578125 5.03515625 C8.11083984 5.84404297 8.54589844 6.65292969 8.99414062 7.48632812 C9.42919922 8.33646484 9.86425781 9.18660156 10.3125 10.0625 C10.76689453 10.91650391 11.22128906 11.77050781 11.68945312 12.65039062 C12.80869175 14.75927182 13.91118143 16.87529814 15 19 C15.66 18.67 16.32 18.34 17 18 C23.17762388 17.10283471 27.10183195 18.12247318 32.15234375 21.70703125 C34.14752179 23.18453948 34.14752179 23.18453948 37.25 24.5 C40.57102629 26.31146888 41.93084029 27.82417905 44 31 C44.73081032 33.7493394 45.00724517 36.48288902 45.25 39.3125 C45.32734375 40.05306641 45.4046875 40.79363281 45.484375 41.55664062 C45.67151741 43.36958268 45.83787704 45.18464954 46 47 C46.66 47 47.32 47 48 47 C48 50.96 48 54.92 48 59 C38.43 59 28.86 59 19 59 C18.505 52.565 18.505 52.565 18 46 C16.06184696 42.9329681 14.69267276 41.04439943 12.1875 38.625 C5.34844075 31.5796965 1.75219843 25.39200404 -0.8125 15.875 C-1.04130859 15.08996094 -1.27011719 14.30492187 -1.50585938 13.49609375 C-2.6372202 9.39274836 -3.52431536 6.14301099 -2 2 C-1.34 1.34 -0.68 0.68 0 0 Z " fill="#F9FCFC" transform="translate(199,206)"/>
<path d="M0 0 C2.45776367 0.12280273 2.45776367 0.12280273 5 1 C6.4855957 2.76586914 6.4855957 2.76586914 7.67578125 5.03515625 C8.11083984 5.84404297 8.54589844 6.65292969 8.99414062 7.48632812 C9.42919922 8.33646484 9.86425781 9.18660156 10.3125 10.0625 C10.76689453 10.91650391 11.22128906 11.77050781 11.68945312 12.65039062 C12.80869175 14.75927182 13.91118143 16.87529814 15 19 C15.66 18.67 16.32 18.34 17 18 C23.17762388 17.10283471 27.10183195 18.12247318 32.15234375 21.70703125 C34.14752179 23.18453948 34.14752179 23.18453948 37.25 24.5 C40.57102629 26.31146888 41.93084029 27.82417905 44 31 C44.73081032 33.7493394 45.00724517 36.48288902 45.25 39.3125 C45.32734375 40.05306641 45.4046875 40.79363281 45.484375 41.55664062 C45.67151741 43.36958268 45.83787704 45.18464954 46 47 C46.66 47 47.32 47 48 47 C48 50.96 48 54.92 48 59 C38.43 59 28.86 59 19 59 C18.505 52.565 18.505 52.565 18 46 C16.06184696 42.9329681 14.69267276 41.04439943 12.1875 38.625 C5.34844075 31.5796965 1.75219843 25.39200404 -0.8125 15.875 C-1.04130859 15.08996094 -1.27011719 14.30492187 -1.50585938 13.49609375 C-2.6372202 9.39274836 -3.52431536 6.14301099 -2 2 C-1.34 1.34 -0.68 0.68 0 0 Z M0 3 C1.70874727 18.43050562 5.52309841 29.43635263 16.66748047 40.55004883 C18 42 18 42 19.69921875 44.87109375 C22.94584617 47.87518873 25.51323485 47.51364574 29.81640625 47.43945312 C30.78449219 47.39755859 31.75257813 47.35566406 32.75 47.3125 C34.22533203 47.27866211 34.22533203 47.27866211 35.73046875 47.24414062 C38.1551947 47.18528805 40.57681983 47.10313431 43 47 C42.88521587 44.93690624 42.75773802 42.87451646 42.625 40.8125 C42.55539063 39.66394531 42.48578125 38.51539063 42.4140625 37.33203125 C42.00158128 34.01272482 41.71683088 31.86457297 40 29 C37.64014462 27.38671705 35.45306802 26.05418282 32.9375 24.75 C31.65443654 24.05823932 30.3718586 23.3655771 29.08984375 22.671875 C27.56037109 21.84429687 27.56037109 21.84429687 26 21 C25.67 20.67 25.34 20.34 25 20 C20.85723125 19.75266863 20.85723125 19.75266863 17 21 C18.50349377 24.66786393 20.63728792 26.68910393 23.625 29.25 C24.44226563 29.95640625 25.25953125 30.6628125 26.1015625 31.390625 C26.72804687 31.92171875 27.35453125 32.4528125 28 33 C24.49913358 33 23.30188244 32.06178102 20.734375 29.79296875 C14.17076967 23.00762 9.72319344 14.97746219 5.640625 6.5546875 C4.25762477 3.85330268 4.25762477 3.85330268 1.796875 3.1328125 C1.20390625 3.08898437 0.6109375 3.04515625 0 3 Z " fill="#169986" transform="translate(199,206)"/>
<path d="M0 0 C0.79148438 0.48726562 1.58296875 0.97453125 2.3984375 1.4765625 C4.59201648 2.64864923 4.59201648 2.64864923 6.71875 1.625 C7.3478125 1.2125 7.976875 0.8 8.625 0.375 C14.34441782 -2.59909727 19.18274208 -3.62350197 25.625 -2.625 C32.92181752 -0.30377381 37.97790534 3.60566932 41.625 10.375 C42.69735074 13.59205221 42.88619883 16.74598055 43 20.125 C43.04898438 21.10984375 43.09796875 22.0946875 43.1484375 23.109375 C41.94444861 30.62082808 36.19769576 36.27680741 31.00390625 41.5 C30.38152573 42.13236572 29.7591452 42.76473145 29.11790466 43.41625977 C27.81161715 44.73761948 26.50134379 46.05504986 25.18725586 47.36865234 C23.18028549 49.38223829 21.19858399 51.41869159 19.21679688 53.45703125 C17.93897135 54.74365046 16.65972307 56.02885856 15.37890625 57.3125 C14.79121964 57.92174316 14.20353302 58.53098633 13.59803772 59.15869141 C10.78339859 61.92726965 9.37641613 63.25808158 5.38647461 63.87890625 C-0.02141833 62.8920889 -3.0990791 58.75103198 -6.4921875 54.74609375 C-9.15799038 51.67672135 -11.93005749 48.79553632 -14.85546875 45.97265625 C-15.62697266 45.22693359 -16.39847656 44.48121094 -17.19335938 43.71289062 C-18.77695038 42.19196439 -20.36817518 40.67894798 -21.96679688 39.17382812 C-27.7683254 33.5281761 -32.40047413 27.69103585 -32.8125 19.3125 C-31.98264931 11.84384375 -29.85479802 6.97304599 -24.25390625 1.8515625 C-16.69951673 -4.08515109 -8.25421536 -4.44925305 0 0 Z M-25.75 6.875 C-28.38895078 10.93492428 -29.67985507 13.71485513 -29.75 18.625 C-29.77835938 19.51703125 -29.80671875 20.4090625 -29.8359375 21.328125 C-28.68707026 28.92233217 -24.1012196 34.26645174 -18.81640625 39.53515625 C-18.19023911 40.16989365 -17.56407196 40.80463104 -16.91893005 41.45860291 C-15.60362137 42.78531905 -14.28314685 44.10693213 -12.95776367 45.42358398 C-10.92881431 47.4461584 -8.92810328 49.49412145 -6.92773438 51.54492188 C-5.64224643 52.83495109 -4.35519089 54.12342054 -3.06640625 55.41015625 C-2.4704213 56.0245607 -1.87443634 56.63896515 -1.26039124 57.27198792 C1.93596084 60.44920898 1.93596084 60.44920898 6.15234375 61.60766602 C9.64778685 59.86512137 12.17663392 57.37443124 14.87890625 54.6171875 C15.46163803 54.03591095 16.04436981 53.4546344 16.64476013 52.85574341 C17.8740543 51.62479177 19.09841045 50.38889158 20.31811523 49.1484375 C22.17246424 47.26526944 24.04460105 45.4013209 25.91992188 43.5390625 C27.11569739 42.33704474 28.31039444 41.13395297 29.50390625 39.9296875 C30.05816788 39.37836151 30.6124295 38.82703552 31.18348694 38.25900269 C36.8687265 32.43617516 40.26604246 26.75428193 40.9375 18.5625 C40.83745408 13.17002516 38.61928003 9.38740985 34.90625 5.640625 C29.57885779 0.90014888 25.58218072 0.04054143 18.48828125 0.078125 C14.8892651 0.45128356 12.36750802 1.5780514 9.28125 3.40234375 C7.625 4.375 7.625 4.375 4.625 5.375 C2.58666576 4.1010411 0.58647874 2.76438077 -1.375 1.375 C-10.3450114 -1.6150038 -19.22768448 0.00940472 -25.75 6.875 Z " fill="#209E8B" transform="translate(244.375,168.625)"/>
<path d="M0 0 C2.64 0 5.28 0 8 0 C9.32 3.3 10.64 6.6 12 10 C13.53521956 7.69717067 14.58357909 5.82137765 15.625 3.3125 C16.07875 2.219375 16.5325 1.12625 17 0 C19.64 0 22.28 0 25 0 C25 7.59 25 15.18 25 23 C23.02 23 21.04 23 19 23 C18.505 18.05 18.505 18.05 18 13 C17.01 16.3 16.02 19.6 15 23 C13.35 23 11.7 23 10 23 C8.68 19.04 7.36 15.08 6 11 C5.67 14.96 5.34 18.92 5 23 C3.35 23 1.7 23 0 23 C0 15.41 0 7.82 0 0 Z " fill="#139884" transform="translate(300,301)"/>
<path d="M0 0 C2.64 0 5.28 0 8 0 C9.32 3.63 10.64 7.26 12 11 C13.65 7.37 15.3 3.74 17 0 C19.64 0 22.28 0 25 0 C25 7.59 25 15.18 25 23 C23.02 23 21.04 23 19 23 C18.67 19.37 18.34 15.74 18 12 C16.68 15.63 15.36 19.26 14 23 C12.68 23 11.36 23 10 23 C8.68 19.37 7.36 15.74 6 12 C5.67 15.63 5.34 19.26 5 23 C3.35 23 1.7 23 0 23 C0 15.41 0 7.82 0 0 Z " fill="#129884" transform="translate(149,301)"/>
<path d="M0 0 C3.3 0 6.6 0 10 0 C10 2.31 10 4.62 10 7 C12.31 7 14.62 7 17 7 C17 10.3 17 13.6 17 17 C14.69 17 12.38 17 10 17 C10 19.64 10 22.28 10 25 C6.7 25 3.4 25 0 25 C0 22.69 0 20.38 0 18 C-1.7015625 18.0309375 -1.7015625 18.0309375 -3.4375 18.0625 C-7 18 -7 18 -8 17 C-8.0979057 15.50261876 -8.12974864 14.00057108 -8.125 12.5 C-8.12757813 11.6853125 -8.13015625 10.870625 -8.1328125 10.03125 C-8 8 -8 8 -7 7 C-4.66702567 6.95907063 -2.33294775 6.95758277 0 7 C0 4.69 0 2.38 0 0 Z " fill="#30A493" transform="translate(245,184)"/>
<path d="M0 0 C4.55555556 0.55555556 4.55555556 0.55555556 6 2 C6.74031004 14.72763799 2.4109763 27.32227398 -6 36.875 C-9.69904661 40.97507593 -13.7049623 44.53584757 -18 48 C-18 43.82087727 -16.24273197 42.84424461 -13.375 39.875 C-4.13470712 29.92579146 3 18.11403315 3 4 C2.01 4 1.02 4 0 4 C-0.67482422 5.52367187 -0.67482422 5.52367187 -1.36328125 7.078125 C-6.41640912 18.04662082 -12.62503397 28.21116353 -23 35 C-23.66 35 -24.32 35 -25 35 C-23.63696103 31.84456479 -22.1817387 30.06811867 -19.5 27.9375 C-17.06335088 25.99127814 -15.77737879 24.66606818 -14 22 C-15.07540225 20.7174365 -15.07540225 20.7174365 -17.609375 20.69921875 C-21.80264945 21.07120277 -24.72374753 22.67956551 -28.25 24.8125 C-28.87390625 25.16892578 -29.4978125 25.52535156 -30.140625 25.89257812 C-33.22830643 27.70592552 -34.98472572 28.97708859 -37 32 C-37.4562792 34.57713254 -37.82945276 37.09298285 -38.125 39.6875 C-38.21136719 40.38939453 -38.29773438 41.09128906 -38.38671875 41.81445312 C-38.59826875 43.54211145 -38.800086 45.2709566 -39 47 C-39.99 46.67 -40.98 46.34 -42 46 C-41.91212085 43.95756745 -41.80393311 41.91600387 -41.6875 39.875 C-41.62949219 38.73804688 -41.57148438 37.60109375 -41.51171875 36.4296875 C-40.85555634 32.03189671 -39.9550892 28.63629487 -36.43237305 25.68798828 C-34.50321593 24.38412296 -32.5445058 23.23908481 -30.5 22.125 C-29.79037109 21.72933838 -29.08074219 21.33367676 -28.34960938 20.92602539 C-22.53995017 17.88146482 -17.55429562 16.87521622 -11 18 C-10.37351562 16.86820313 -9.74703125 15.73640625 -9.1015625 14.5703125 C-8.27621778 13.08844357 -7.45068728 11.60667809 -6.625 10.125 C-6.00625 9.00544922 -6.00625 9.00544922 -5.375 7.86328125 C-4.97539062 7.14785156 -4.57578125 6.43242187 -4.1640625 5.6953125 C-3.79748535 5.03547363 -3.4309082 4.37563477 -3.05322266 3.69580078 C-2 2 -2 2 0 0 Z M-39 48 C-32.4 48 -25.8 48 -19 48 C-19 48.33 -19 48.66 -19 49 C-25.6 49 -32.2 49 -39 49 C-39 48.67 -39 48.34 -39 48 Z " fill="#1A9B88" transform="translate(297,206)"/>
<path d="M0 0 C0.33 0.66 0.66 1.32 1 2 C4.6041498 2.02900455 8.20826962 2.04680018 11.8125 2.0625 C13.34874023 2.07506836 13.34874023 2.07506836 14.91601562 2.08789062 C15.89892578 2.09111328 16.88183594 2.09433594 17.89453125 2.09765625 C18.80050049 2.10289307 19.70646973 2.10812988 20.63989258 2.11352539 C23.15284039 2.09920981 23.15284039 2.09920981 26 1 C26 5.29 26 9.58 26 14 C16.1 14 6.2 14 -4 14 C-4 10.04 -4 6.08 -4 2 C-2.68 1.34 -1.36 0.68 0 0 Z M2 3 C2 3.33 2 3.66 2 4 C8.6 4 15.2 4 22 4 C22 3.67 22 3.34 22 3 C15.4 3 8.8 3 2 3 Z " fill="#249F8D" transform="translate(256,251)"/>
<path d="M0 0 C2.64 0 5.28 0 8 0 C9.82323752 4.74041755 11.54631749 9.5057626 13.1875 14.3125 C13.53167969 15.31925781 13.87585938 16.32601563 14.23046875 17.36328125 C15 20 15 20 15 23 C13.02 23 11.04 23 9 23 C8.67 22.01 8.34 21.02 8 20 C5.36 20 2.72 20 0 20 C-0.33 20.99 -0.66 21.98 -1 23 C-2.98 23 -4.96 23 -7 23 C-4.97810834 15.21878058 -2.61369593 7.60227292 0 0 Z " fill="#159985" transform="translate(338,301)"/>
<path d="M0 0 C5.61 0 11.22 0 17 0 C17 1.65 17 3.3 17 5 C13.37 5 9.74 5 6 5 C6 6.32 6 7.64 6 9 C8.97 9 11.94 9 15 9 C15 10.65 15 12.3 15 14 C12.03 14 9.06 14 6 14 C6 15.32 6 16.64 6 18 C9.63 18 13.26 18 17 18 C17 19.65 17 21.3 17 23 C11.39 23 5.78 23 0 23 C0 15.41 0 7.82 0 0 Z " fill="#1C9C89" transform="translate(276,301)"/>
<path d="M0 0 C5.61 0 11.22 0 17 0 C17 1.65 17 3.3 17 5 C13.37 5 9.74 5 6 5 C6 6.32 6 7.64 6 9 C8.97 9 11.94 9 15 9 C15 10.65 15 12.3 15 14 C12.03 14 9.06 14 6 14 C6 15.32 6 16.64 6 18 C9.63 18 13.26 18 17 18 C17 19.65 17 21.3 17 23 C11.39 23 5.78 23 0 23 C0 15.41 0 7.82 0 0 Z " fill="#1C9C89" transform="translate(206,301)"/>
<path d="M0 0 C5.61 0 11.22 0 17 0 C15.875 7.875 15.875 7.875 11.9375 12.4375 C11.20402344 13.30246094 10.47054688 14.16742188 9.71484375 15.05859375 C9.14894531 15.69925781 8.58304687 16.33992188 8 17 C10.97 17.33 13.94 17.66 17 18 C17 19.65 17 21.3 17 23 C11.06 23 5.12 23 -1 23 C-1 17.30510031 0.57799276 15.3355277 4 11.1875 C4.47695313 10.59001953 4.95390625 9.99253906 5.4453125 9.37695312 C6.61944235 7.90929082 7.80830803 6.45343861 9 5 C6.03 5 3.06 5 0 5 C0 3.35 0 1.7 0 0 Z " fill="#159985" transform="translate(252,301)"/>
<path d="M0 0 C1.06730104 2.00058993 1.95956559 3.85312048 2.56274414 6.04418945 C5.17985775 14.99349804 11.94982368 20.85513386 18.41723633 27.19946289 C20.45048386 29.20027675 22.44936436 31.2315331 24.44726562 33.26757812 C25.73245326 34.54880558 27.0194984 35.82817309 28.30859375 37.10546875 C28.9045787 37.71359909 29.50056366 38.32172943 30.11460876 38.94828796 C33.32496336 42.09536769 33.32496336 42.09536769 37.54101562 43.22119141 C40.97205262 41.51725504 43.41117397 39.08159319 46.03515625 36.35546875 C46.87595985 35.50617546 46.87595985 35.50617546 47.73374939 34.63972473 C49.51963342 32.83151268 51.29111928 31.00991112 53.0625 29.1875 C54.25753258 27.97239101 55.45348696 26.75818786 56.65039062 25.54492188 C58.85220866 23.31049597 61.04856565 21.07099922 63.23852539 18.82495117 C65.47760304 16.53440502 67.72897895 14.25878385 70 12 C70.495 13.485 70.495 13.485 71 15 C66.71427364 19.43408721 62.40916919 23.84806108 58.08496094 28.24462891 C56.61690569 29.74284968 55.15428145 31.24641232 53.69726562 32.75537109 C51.60131871 34.9241336 49.48655838 37.07290308 47.3671875 39.21875 C46.72006805 39.89683716 46.07294861 40.57492432 45.40621948 41.27355957 C40.82056286 45.86256703 40.82056286 45.86256703 36.72314453 46.54882812 C31.35468974 45.46685875 28.27757117 41.37853081 24.88671875 37.3828125 C20.01883668 31.78036119 14.66281276 26.68010425 9.3203125 21.53515625 C0.43759562 12.81583383 0.43759562 12.81583383 -0.29296875 6.4453125 C-0.25816406 5.67960938 -0.22335938 4.91390625 -0.1875 4.125 C-0.16042969 3.34382812 -0.13335937 2.56265625 -0.10546875 1.7578125 C-0.07066406 1.17773438 -0.03585938 0.59765625 0 0 Z " fill="#189A86" transform="translate(213,186)"/>
<path d="M0 0 C1.47726563 0.05414063 1.47726563 0.05414063 2.984375 0.109375 C3.73203125 0.15578125 4.4796875 0.2021875 5.25 0.25 C5.25 1.9 5.25 3.55 5.25 5.25 C2.28 5.25 -0.69 5.25 -3.75 5.25 C-3.75 9.21 -3.75 13.17 -3.75 17.25 C-0.78 17.58 2.19 17.91 5.25 18.25 C5.25 19.9 5.25 21.55 5.25 23.25 C3.31318839 23.33107583 1.3754066 23.38922475 -0.5625 23.4375 C-1.64144531 23.47230469 -2.72039062 23.50710938 -3.83203125 23.54296875 C-6.75 23.25 -6.75 23.25 -8.609375 22.234375 C-10.42122159 19.08225832 -10.22230339 15.84662634 -10.1875 12.3125 C-10.2174707 11.23838867 -10.2174707 11.23838867 -10.24804688 10.14257812 C-10.24489643 6.74325319 -9.99066403 4.6090234 -8.08203125 1.76171875 C-5.1634978 -0.13019489 -3.44842681 -0.1642108 0 0 Z " fill="#139884" transform="translate(239.75,300.75)"/>
<path d="M0 0 C1.98 0 3.96 0 6 0 C6.99 2.97 7.98 5.94 9 9 C9.66 9 10.32 9 11 9 C11.99 6.03 12.98 3.06 14 0 C15.98 0 17.96 0 20 0 C18.94925922 3.50246928 17.69553312 6.622469 15.9375 9.8125 C13.70075187 14.11138023 13.22196793 18.20549273 13 23 C11.02 23 9.04 23 7 23 C6.95875 21.7625 6.9175 20.525 6.875 19.25 C6.30068622 13.69240974 3.91379887 9.36118709 1.27734375 4.50390625 C0 2 0 2 0 0 Z " fill="#139884" transform="translate(180,301)"/>
<path d="M0 0 C3.9129517 1.53153992 5.80823895 3.92276007 8.375 7.1875 C9.91179926 9.12886302 11.45385698 11.06607029 13 13 C13.62430908 13.93622192 13.62430908 13.93622192 14.26123047 14.89135742 C16.3459465 17.7830246 17.83815412 19.6795698 21.35205078 20.64868164 C24.04881565 20.91088814 26.66610531 20.9703468 29.375 20.9375 C30.30183594 20.95361328 31.22867188 20.96972656 32.18359375 20.98632812 C34.45724724 21.02148772 36.72634812 21.02519194 39 21 C39 21.33 39 21.66 39 22 C31.74 22 24.48 22 17 22 C17 24.64 17 27.28 17 30 C25.25 30 33.5 30 42 30 C42 26.7 42 23.4 42 20 C42.66 20 43.32 20 44 20 C44 23.96 44 27.92 44 32 C34.43 32 24.86 32 15 32 C14.67 27.71 14.34 23.42 14 19 C12.01975261 15.89693193 10.6056775 13.95751879 8.0625 11.5 C6.9645284 10.36992397 5.87189732 9.23463006 4.78515625 8.09375 C4.2864502 7.57296875 3.78774414 7.0521875 3.27392578 6.515625 C1.59926514 4.52323457 0.73623178 2.48188827 0 0 Z " fill="#0C9580" transform="translate(203,233)"/>
<path d="M0 0 C8.25 0 16.5 0 25 0 C25 2.31 25 4.62 25 7 C16.75 7 8.5 7 0 7 C0 4.69 0 2.38 0 0 Z " fill="#FCFDFD" transform="translate(220,256)"/>
<path d="M0 0 C1.65 0 3.3 0 5 0 C5 2.31 5 4.62 5 7 C7.64 7 10.28 7 13 7 C13 8.65 13 10.3 13 12 C10.36 12 7.72 12 5 12 C5 14.31 5 16.62 5 19 C3.35 19 1.7 19 0 19 C0 16.69 0 14.38 0 12 C-2.31 12 -4.62 12 -7 12 C-7 10.35 -7 8.7 -7 7 C-4.69 7 -2.38 7 0 7 C0 4.69 0 2.38 0 0 Z " fill="#F7FBFB" transform="translate(247,187)"/>
<path d="M0 0 C7.92 0 15.84 0 24 0 C24 2.31 24 4.62 24 7 C16.08 7 8.16 7 0 7 C0 4.69 0 2.38 0 0 Z " fill="#FFFFFF" transform="translate(255,256)"/>
<path d="M0 0 C0.70125 0.00515625 1.4025 0.0103125 2.125 0.015625 C2.82625 0.01046875 3.5275 0.0053125 4.25 0 C6.125 0.265625 6.125 0.265625 8.125 2.265625 C8.3203125 4.8671875 8.3203125 4.8671875 8.25 7.890625 C8.23195312 8.89351563 8.21390625 9.89640625 8.1953125 10.9296875 C8.16050781 12.08597656 8.16050781 12.08597656 8.125 13.265625 C5.89609005 14.38007998 4.59444894 14.43042786 2.125 14.453125 C1.073125 14.47439453 1.073125 14.47439453 0 14.49609375 C-1.875 14.265625 -1.875 14.265625 -3.875 12.265625 C-4.140625 9.953125 -4.140625 9.953125 -4.125 7.265625 C-4.13015625 6.37875 -4.1353125 5.491875 -4.140625 4.578125 C-3.80306577 1.63937407 -3.01925908 0.42772837 0 0 Z " fill="#199B87" transform="translate(201.875,335.734375)"/>
<path d="M0 0 C6.8359375 -0.1953125 6.8359375 -0.1953125 9 0 C11 2 11 2 11.1953125 4.8203125 C11.16050781 6.45613281 11.16050781 6.45613281 11.125 8.125 C11.10695312 9.22070312 11.08890625 10.31640625 11.0703125 11.4453125 C11.04710937 12.28835938 11.02390625 13.13140625 11 14 C9.0625 13.6875 9.0625 13.6875 7 13 C6.67 12.01 6.34 11.02 6 10 C5.34 9.67 4.68 9.34 4 9 C4 10.65 4 12.3 4 14 C2.68 14 1.36 14 0 14 C0 9.38 0 4.76 0 0 Z " fill="#2CA391" transform="translate(243,336)"/>
<path d="M0 0 C3.50654361 0.20037392 4.96542521 0.97105367 7.6875 3.25 C12.42111421 9.38285866 12 18.64211633 12 26 C3.75 26 -4.5 26 -13 26 C-12.01 24.515 -12.01 24.515 -11 23 C-8.93701172 22.65942383 -8.93701172 22.65942383 -6.4296875 22.70703125 C-5.53378906 22.71669922 -4.63789063 22.72636719 -3.71484375 22.73632812 C-2.30912109 22.7740332 -2.30912109 22.7740332 -0.875 22.8125 C0.54232422 22.83280273 0.54232422 22.83280273 1.98828125 22.85351562 C4.32608779 22.88893694 6.66276237 22.93832729 9 23 C8.68371028 20.24074871 8.32421889 17.49950426 7.9375 14.75 C7.81084961 13.58404297 7.81084961 13.58404297 7.68164062 12.39453125 C7.05819567 7.94304948 7.05819567 7.94304948 4.31689453 4.56054688 C2.18840562 3.29595403 2.18840562 3.29595403 -1 2 C-0.67 1.34 -0.34 0.68 0 0 Z " fill="#219E8B" transform="translate(233,230)"/>
<path d="M0 0 C1.65 0 3.3 0 5 0 C5.67031719 1.9570868 6.33614683 3.91571113 7 5.875 C7.556875 7.51082031 7.556875 7.51082031 8.125 9.1796875 C9 12 9 12 9 14 C7.68 14 6.36 14 5 14 C5 13.34 5 12.68 5 12 C3.02 12 1.04 12 -1 12 C-1 12.66 -1 13.32 -1 14 C-1.99 14 -2.98 14 -4 14 C-3.46148032 8.72250715 -2.22656164 4.74354436 0 0 Z " fill="#2BA291" transform="translate(291,336)"/>
<path d="M0 0 C1.32 0 2.64 0 4 0 C5.75 2.5 5.75 2.5 7 5 C7.33 3.35 7.66 1.7 8 0 C8.99 0 9.98 0 11 0 C11 4.62 11 9.24 11 14 C7 13 7 13 5.25 10.4375 C4.8375 9.633125 4.425 8.82875 4 8 C3.67 9.98 3.34 11.96 3 14 C2.01 14 1.02 14 0 14 C0 9.38 0 4.76 0 0 Z " fill="#0D9581" transform="translate(265,336)"/>
<path d="M0 0 C0.495 1.485 0.495 1.485 1 3 C-3.30730182 7.43084547 -7.63073479 11.84505207 -11.9699707 16.24462891 C-13.44393018 17.74374127 -14.9133721 19.24730931 -16.37817383 20.75537109 C-18.48389132 22.92170016 -20.60530864 25.07151223 -22.73046875 27.21875 C-23.38274948 27.89683716 -24.03503021 28.57492432 -24.70707703 29.27355957 C-29.3353492 33.90464972 -29.3353492 33.90464972 -32.9543457 34.42382812 C-33.96694458 34.2140332 -33.96694458 34.2140332 -35 34 C-35 33.34 -35 32.68 -35 32 C-34.2994751 31.78843262 -33.5989502 31.57686523 -32.87719727 31.35888672 C-29.2165848 29.62999669 -26.74647359 27.12065145 -23.96484375 24.2578125 C-23.12404015 23.41064163 -23.12404015 23.41064163 -22.26625061 22.5463562 C-20.48280363 20.74618605 -18.71007323 18.9358718 -16.9375 17.125 C-15.74223479 15.91467454 -14.54627797 14.70503168 -13.34960938 13.49609375 C-11.14924577 11.27129039 -8.95294371 9.04264636 -6.76147461 6.80908203 C-4.51881746 4.52776179 -2.26662022 2.2574601 0 0 Z " fill="#0D9581" transform="translate(283,198)"/>
<path d="M0 0 C1.32 0 2.64 0 4 0 C4 3.63 4 7.26 4 11 C5.32 11 6.64 11 8 11 C8 7.37 8 3.74 8 0 C8.99 0 9.98 0 11 0 C11.05389087 1.95803507 11.09274217 3.91648909 11.125 5.875 C11.14820313 6.96554687 11.17140625 8.05609375 11.1953125 9.1796875 C11 12 11 12 9 14 C5.5 14.25 5.5 14.25 2 14 C0 12 0 12 -0.1953125 9.1796875 C-0.17210937 8.08914063 -0.14890625 6.99859375 -0.125 5.875 C-0.10695312 4.77929688 -0.08890625 3.68359375 -0.0703125 2.5546875 C-0.04710937 1.71164062 -0.02390625 0.86859375 0 0 Z " fill="#1A9B88" transform="translate(221,336)"/>
<path d="M0 0 C2.5 0.125 2.5 0.125 5 1 C6.3125 3.0625 6.3125 3.0625 7 5 C4.61435923 4.42415568 2.33317216 3.77772405 0 3 C0.18175781 3.62044189 0.36351562 4.24088379 0.55078125 4.88012695 C1.37133269 7.68972665 2.18573159 10.50107326 3 13.3125 C3.28617188 14.28896484 3.57234375 15.26542969 3.8671875 16.27148438 C4.13789063 17.20927734 4.40859375 18.14707031 4.6875 19.11328125 C5.06455078 20.40939331 5.06455078 20.40939331 5.44921875 21.73168945 C6 24 6 24 6 27 C5.01 27 4.02 27 3 27 C1.96019038 23.77663498 0.94658589 20.54560225 -0.0625 17.3125 C-0.35705078 16.40048828 -0.65160156 15.48847656 -0.95507812 14.54882812 C-1.22900391 13.66259766 -1.50292969 12.77636719 -1.78515625 11.86328125 C-2.04176025 11.05157471 -2.29836426 10.23986816 -2.56274414 9.40356445 C-3.07278937 6.59988199 -2.82102774 4.71874285 -2 2 C-1.34 1.34 -0.68 0.68 0 0 Z " fill="#2CA391" transform="translate(199,206)"/>
<path d="M0 0 C1.640625 1.5234375 1.640625 1.5234375 3 3 C2.27554688 3.09796875 1.55109375 3.1959375 0.8046875 3.296875 C-4.98409018 4.19220595 -9.52197693 4.95885723 -14 9 C-16.76487843 12.88577509 -18.11636001 15.58513207 -18.5625 20.3125 C-18.706875 21.529375 -18.85125 22.74625 -19 24 C-19.99 24.66 -20.98 25.32 -22 26 C-22.36721564 19.14530807 -21.79812162 13.61514421 -17.48828125 8.046875 C-12.8673219 3.10400612 -7.16223779 -1.1937063 0 0 Z " fill="#36A796" transform="translate(234,166)"/>
<path d="M0 0 C0.99 0 1.98 0 3 0 C3 3.63 3 7.26 3 11 C4.98 11 6.96 11 9 11 C9 11.99 9 12.98 9 14 C6.03 14 3.06 14 0 14 C0 9.38 0 4.76 0 0 Z " fill="#0D9581" transform="translate(310,336)"/>
<path d="M0 0 C0.33 0 0.66 0 1 0 C1 2.31 1 4.62 1 7 C3.64 7 6.28 7 9 7 C9 9.97 9 12.94 9 16 C7.329375 16.12375 7.329375 16.12375 5.625 16.25 C1.94246056 16.57873787 1.94246056 16.57873787 0.5625 19.0625 C0.376875 19.701875 0.19125 20.34125 0 21 C0 18.69 0 16.38 0 14 C2.31 14 4.62 14 7 14 C7 12.35 7 10.7 7 9 C4.69 9 2.38 9 0 9 C0 6.03 0 3.06 0 0 Z " fill="#05927D" transform="translate(253,185)"/>
<path d="M0 0 C0.33 0 0.66 0 1 0 C1 1.98 1 3.96 1 6 C-7.25 6 -15.5 6 -24 6 C-23.34 5.01 -22.68 4.02 -22 3 C-19.75341797 2.56762695 -19.75341797 2.56762695 -16.9921875 2.48828125 C-16.00605469 2.45283203 -15.01992187 2.41738281 -14.00390625 2.38085938 C-12.97136719 2.35830078 -11.93882812 2.33574219 -10.875 2.3125 C-9.83472656 2.27833984 -8.79445312 2.24417969 -7.72265625 2.20898438 C-5.14854493 2.12632942 -2.57478171 2.05723845 0 2 C0 1.34 0 0.68 0 0 Z " fill="#3EAA9A" transform="translate(244,250)"/>
<path d="M0 0 C4.875 0.875 4.875 0.875 6 2 C6.47675477 8.55537815 5.12764994 13.8196835 3 20 C2.01 19.67 1.02 19.34 0 19 C0.2165625 18.16855469 0.433125 17.33710938 0.65625 16.48046875 C0.9346875 15.39378906 1.213125 14.30710938 1.5 13.1875 C1.7784375 12.10855469 2.056875 11.02960938 2.34375 9.91796875 C3.10970948 7.01066025 3.10970948 7.01066025 3 4 C1.54166642 2.37485532 1.54166642 2.37485532 0 1 C0 0.67 0 0.34 0 0 Z " fill="#2EA492" transform="translate(297,206)"/>
<path d="M0 0 C0.66 0.33 1.32 0.66 2 1 C1.79503906 1.60585937 1.59007812 2.21171875 1.37890625 2.8359375 C-0.5720212 8.90341521 -1.6077615 14.64303124 -2 21 C-2.99 20.67 -3.98 20.34 -5 20 C-4.3255814 4.3255814 -4.3255814 4.3255814 0 0 Z " fill="#27A18E" transform="translate(260,232)"/>
<path d="M0 0 C0.99 0 1.98 0 3 0 C3.02685938 2.14576637 3.04633088 4.29162645 3.0625 6.4375 C3.07410156 7.63246094 3.08570313 8.82742188 3.09765625 10.05859375 C3 13 3 13 2 14 C0.33382885 14.04063832 -1.33388095 14.042721 -3 14 C-3 13.01 -3 12.02 -3 11 C-2.01 11 -1.02 11 0 11 C0 7.37 0 3.74 0 0 Z " fill="#129783" transform="translate(184,336)"/>
<path d="M0 0 C1.65 0 3.3 0 5 0 C5 2.64 5 5.28 5 8 C3.35 8 1.7 8 0 8 C0 5.36 0 2.72 0 0 Z " fill="#E8F5F3" transform="translate(202,339)"/>
<path d="M0 0 C1.32 0.33 2.64 0.66 4 1 C3.443125 1.45375 2.88625 1.9075 2.3125 2.375 C-1.00489056 6.14068658 -2.89274299 10.4745792 -5 15 C-5.66 14.67 -6.32 14.34 -7 14 C-5.53967505 8.68972746 -3.01679014 4.53669968 0 0 Z " fill="#129783" transform="translate(296,207)"/>
<path d="M0 0 C1.6484375 1.51953125 1.6484375 1.51953125 3 3 C2.24074219 3.13277344 1.48148438 3.26554688 0.69921875 3.40234375 C-0.29464844 3.57894531 -1.28851563 3.75554687 -2.3125 3.9375 C-3.79169922 4.19853516 -3.79169922 4.19853516 -5.30078125 4.46484375 C-8.08189213 4.95746847 -8.08189213 4.95746847 -11 6 C-10.8125 4.125 -10.8125 4.125 -10 2 C-6.68336555 0.15742531 -3.76659722 -0.4956049 0 0 Z " fill="#37A797" transform="translate(234,166)"/>
<path d="M0 0 C0 0.99 0 1.98 0 3 C-2.5 4.6875 -2.5 4.6875 -5 6 C-3.63016497 2.83884224 -3.0109362 2.0072908 0 0 Z M-25 6 C-18.4 6 -11.8 6 -5 6 C-5 6.33 -5 6.66 -5 7 C-11.6 7 -18.2 7 -25 7 C-25 6.67 -25 6.34 -25 6 Z " fill="#09937F" transform="translate(283,248)"/>
<path d="M0 0 C8.57142857 0.85714286 8.57142857 0.85714286 12 3 C11.67 3.99 11.34 4.98 11 6 C7.04 4.68 3.08 3.36 -1 2 C-0.67 1.34 -0.34 0.68 0 0 Z " fill="#1A9B87" transform="translate(234,166)"/>
<path d="M0 0 C0.66 0 1.32 0 2 0 C2.33 2.64 2.66 5.28 3 8 C1.68 8 0.36 8 -1 8 C-0.67 5.36 -0.34 2.72 0 0 Z " fill="#DFF1EE" transform="translate(341,307)"/>
<path d="M0 0 C0.66 0.33 1.32 0.66 2 1 C-0.97 4.96 -0.97 4.96 -4 9 C-4.66 8.67 -5.32 8.34 -6 8 C-4.55746343 4.63408134 -2.66735273 2.48952921 0 0 Z " fill="#139884" transform="translate(222,169)"/>
<path d="M0 0 C0.99 0.66 1.98 1.32 3 2 C2.34 3.98 1.68 5.96 1 8 C0.01 8 -0.98 8 -2 8 C-1.34 5.36 -0.68 2.72 0 0 Z " fill="#32A594" transform="translate(284,191)"/>
<path d="M0 0 C2.62187494 1.04874998 3.79371361 1.64931313 5.25 4.125 C5.4975 4.74375 5.745 5.3625 6 6 C5.01 6 4.02 6 3 6 C0 2.66666667 0 2.66666667 0 0 Z " fill="#179986" transform="translate(203,233)"/>
</svg>
